<mxfile host="app.diagrams.net" agent="Mozilla/5.0 (Windows NT 10.0; Win64; x64) AppleWebKit/537.36 (KHTML, like Gecko) Chrome/134.0.0.0 Safari/537.36" version="26.1.0">
  <diagram name="Page-1" id="CddwIf4-oofGmSLvM90a">
    <mxGraphModel dx="1434" dy="746" grid="1" gridSize="10" guides="1" tooltips="1" connect="1" arrows="1" fold="1" page="1" pageScale="1" pageWidth="850" pageHeight="1100" math="0" shadow="0">
      <root>
        <mxCell id="0" />
        <mxCell id="1" parent="0" />
        <mxCell id="CV2bUwNG1tKQA0WuUEcw-4" value="" style="rounded=1;whiteSpace=wrap;html=1;" vertex="1" parent="1">
          <mxGeometry x="40" y="160" width="120" height="500" as="geometry" />
        </mxCell>
        <mxCell id="CV2bUwNG1tKQA0WuUEcw-6" value="" style="rounded=1;whiteSpace=wrap;html=1;strokeColor=#8A603E;fillColor=default;" vertex="1" parent="1">
          <mxGeometry x="220" y="160" width="160" height="500" as="geometry" />
        </mxCell>
        <mxCell id="CV2bUwNG1tKQA0WuUEcw-7" value="&lt;span style=&quot;background-color: light-dark(#ffffff, var(--ge-dark-color, #121212));&quot;&gt;&lt;font style=&quot;color: light-dark(rgb(138, 96, 62), rgb(153, 125, 95));&quot;&gt;Bronze&lt;/font&gt;&lt;/span&gt;" style="rounded=0;whiteSpace=wrap;html=1;fillColor=none;strokeColor=none;fontStyle=1" vertex="1" parent="1">
          <mxGeometry x="219.75" y="130" width="160" height="30" as="geometry" />
        </mxCell>
        <mxCell id="CV2bUwNG1tKQA0WuUEcw-8" value="" style="rounded=1;whiteSpace=wrap;html=1;strokeColor=#757575;fillColor=default;" vertex="1" parent="1">
          <mxGeometry x="420" y="160" width="160" height="500" as="geometry" />
        </mxCell>
        <mxCell id="CV2bUwNG1tKQA0WuUEcw-9" value="&lt;font style=&quot;color: rgb(117, 117, 117);&quot;&gt;Silver&lt;/font&gt;" style="rounded=0;whiteSpace=wrap;html=1;fillColor=none;strokeColor=none;fontStyle=1" vertex="1" parent="1">
          <mxGeometry x="419.75" y="130" width="160" height="30" as="geometry" />
        </mxCell>
        <mxCell id="CV2bUwNG1tKQA0WuUEcw-10" value="" style="rounded=1;whiteSpace=wrap;html=1;strokeColor=#BFA34D;" vertex="1" parent="1">
          <mxGeometry x="620" y="160" width="160" height="500" as="geometry" />
        </mxCell>
        <mxCell id="CV2bUwNG1tKQA0WuUEcw-11" value="&lt;font style=&quot;color: rgb(191, 163, 77);&quot;&gt;Gold&lt;/font&gt;" style="rounded=0;whiteSpace=wrap;html=1;fillColor=none;strokeColor=none;" vertex="1" parent="1">
          <mxGeometry x="619.75" y="130" width="160" height="30" as="geometry" />
        </mxCell>
        <mxCell id="CV2bUwNG1tKQA0WuUEcw-51" style="edgeStyle=orthogonalEdgeStyle;rounded=0;orthogonalLoop=1;jettySize=auto;html=1;entryX=0;entryY=0.5;entryDx=0;entryDy=0;" edge="1" parent="1" source="CV2bUwNG1tKQA0WuUEcw-14" target="CV2bUwNG1tKQA0WuUEcw-34">
          <mxGeometry relative="1" as="geometry" />
        </mxCell>
        <mxCell id="CV2bUwNG1tKQA0WuUEcw-52" style="edgeStyle=orthogonalEdgeStyle;rounded=0;orthogonalLoop=1;jettySize=auto;html=1;" edge="1" parent="1" source="CV2bUwNG1tKQA0WuUEcw-14" target="CV2bUwNG1tKQA0WuUEcw-35">
          <mxGeometry relative="1" as="geometry" />
        </mxCell>
        <mxCell id="CV2bUwNG1tKQA0WuUEcw-53" style="edgeStyle=orthogonalEdgeStyle;rounded=0;orthogonalLoop=1;jettySize=auto;html=1;entryX=0;entryY=0.5;entryDx=0;entryDy=0;" edge="1" parent="1" source="CV2bUwNG1tKQA0WuUEcw-14" target="CV2bUwNG1tKQA0WuUEcw-36">
          <mxGeometry relative="1" as="geometry" />
        </mxCell>
        <mxCell id="CV2bUwNG1tKQA0WuUEcw-14" value="ERP" style="verticalLabelPosition=bottom;html=1;verticalAlign=top;align=center;strokeColor=none;fillColor=#00BEF2;shape=mxgraph.azure.file_2;pointerEvents=1;" vertex="1" parent="1">
          <mxGeometry x="76.25" y="290" width="47.5" height="50" as="geometry" />
        </mxCell>
        <mxCell id="CV2bUwNG1tKQA0WuUEcw-55" style="edgeStyle=orthogonalEdgeStyle;rounded=0;orthogonalLoop=1;jettySize=auto;html=1;entryX=0;entryY=0.5;entryDx=0;entryDy=0;" edge="1" parent="1" source="CV2bUwNG1tKQA0WuUEcw-15" target="CV2bUwNG1tKQA0WuUEcw-37">
          <mxGeometry relative="1" as="geometry" />
        </mxCell>
        <mxCell id="CV2bUwNG1tKQA0WuUEcw-56" style="edgeStyle=orthogonalEdgeStyle;rounded=0;orthogonalLoop=1;jettySize=auto;html=1;entryX=0;entryY=0.5;entryDx=0;entryDy=0;" edge="1" parent="1" source="CV2bUwNG1tKQA0WuUEcw-15" target="CV2bUwNG1tKQA0WuUEcw-38">
          <mxGeometry relative="1" as="geometry" />
        </mxCell>
        <mxCell id="CV2bUwNG1tKQA0WuUEcw-57" style="edgeStyle=orthogonalEdgeStyle;rounded=0;orthogonalLoop=1;jettySize=auto;html=1;entryX=0;entryY=0.5;entryDx=0;entryDy=0;" edge="1" parent="1" source="CV2bUwNG1tKQA0WuUEcw-15" target="CV2bUwNG1tKQA0WuUEcw-39">
          <mxGeometry relative="1" as="geometry" />
        </mxCell>
        <mxCell id="CV2bUwNG1tKQA0WuUEcw-15" value="CRM&lt;div&gt;&lt;br&gt;&lt;/div&gt;" style="verticalLabelPosition=bottom;html=1;verticalAlign=top;align=center;strokeColor=none;fillColor=#00BEF2;shape=mxgraph.azure.file_2;pointerEvents=1;" vertex="1" parent="1">
          <mxGeometry x="76.25" y="463" width="47.5" height="50" as="geometry" />
        </mxCell>
        <mxCell id="CV2bUwNG1tKQA0WuUEcw-30" value="Data Flow" style="rounded=0;whiteSpace=wrap;html=1;fontStyle=1" vertex="1" parent="1">
          <mxGeometry x="10" y="20" width="790" height="60" as="geometry" />
        </mxCell>
        <mxCell id="CV2bUwNG1tKQA0WuUEcw-58" style="edgeStyle=orthogonalEdgeStyle;rounded=0;orthogonalLoop=1;jettySize=auto;html=1;" edge="1" parent="1" source="CV2bUwNG1tKQA0WuUEcw-34" target="CV2bUwNG1tKQA0WuUEcw-41">
          <mxGeometry relative="1" as="geometry" />
        </mxCell>
        <mxCell id="CV2bUwNG1tKQA0WuUEcw-34" value="crm_sales_details" style="text;html=1;align=center;verticalAlign=middle;whiteSpace=wrap;rounded=1;fillColor=#8A603E;arcSize=50;" vertex="1" parent="1">
          <mxGeometry x="233" y="280" width="135" height="30" as="geometry" />
        </mxCell>
        <mxCell id="CV2bUwNG1tKQA0WuUEcw-59" style="edgeStyle=orthogonalEdgeStyle;rounded=0;orthogonalLoop=1;jettySize=auto;html=1;entryX=0;entryY=0.5;entryDx=0;entryDy=0;" edge="1" parent="1" source="CV2bUwNG1tKQA0WuUEcw-35" target="CV2bUwNG1tKQA0WuUEcw-42">
          <mxGeometry relative="1" as="geometry" />
        </mxCell>
        <mxCell id="CV2bUwNG1tKQA0WuUEcw-35" value="crm_cust_info" style="text;html=1;align=center;verticalAlign=middle;whiteSpace=wrap;rounded=1;fillColor=#8A603E;arcSize=50;" vertex="1" parent="1">
          <mxGeometry x="233" y="319" width="135" height="30" as="geometry" />
        </mxCell>
        <mxCell id="CV2bUwNG1tKQA0WuUEcw-60" style="edgeStyle=orthogonalEdgeStyle;rounded=0;orthogonalLoop=1;jettySize=auto;html=1;entryX=0;entryY=0.5;entryDx=0;entryDy=0;" edge="1" parent="1" source="CV2bUwNG1tKQA0WuUEcw-36" target="CV2bUwNG1tKQA0WuUEcw-43">
          <mxGeometry relative="1" as="geometry" />
        </mxCell>
        <mxCell id="CV2bUwNG1tKQA0WuUEcw-36" value="crm_prd_info" style="text;html=1;align=center;verticalAlign=middle;whiteSpace=wrap;rounded=1;fillColor=#8A603E;arcSize=50;" vertex="1" parent="1">
          <mxGeometry x="233" y="360" width="135" height="30" as="geometry" />
        </mxCell>
        <mxCell id="CV2bUwNG1tKQA0WuUEcw-61" style="edgeStyle=orthogonalEdgeStyle;rounded=0;orthogonalLoop=1;jettySize=auto;html=1;" edge="1" parent="1" source="CV2bUwNG1tKQA0WuUEcw-37" target="CV2bUwNG1tKQA0WuUEcw-44">
          <mxGeometry relative="1" as="geometry" />
        </mxCell>
        <mxCell id="CV2bUwNG1tKQA0WuUEcw-37" value="erp_cust_az12" style="text;html=1;align=center;verticalAlign=middle;whiteSpace=wrap;rounded=1;fillColor=#8A603E;arcSize=50;" vertex="1" parent="1">
          <mxGeometry x="232.5" y="430" width="135" height="30" as="geometry" />
        </mxCell>
        <mxCell id="CV2bUwNG1tKQA0WuUEcw-62" style="edgeStyle=orthogonalEdgeStyle;rounded=0;orthogonalLoop=1;jettySize=auto;html=1;entryX=0;entryY=0.5;entryDx=0;entryDy=0;" edge="1" parent="1" source="CV2bUwNG1tKQA0WuUEcw-38" target="CV2bUwNG1tKQA0WuUEcw-45">
          <mxGeometry relative="1" as="geometry" />
        </mxCell>
        <mxCell id="CV2bUwNG1tKQA0WuUEcw-38" value="erp_loc_a101" style="text;html=1;align=center;verticalAlign=middle;whiteSpace=wrap;rounded=1;fillColor=#8A603E;arcSize=50;" vertex="1" parent="1">
          <mxGeometry x="232.5" y="470" width="135" height="30" as="geometry" />
        </mxCell>
        <mxCell id="CV2bUwNG1tKQA0WuUEcw-63" style="edgeStyle=orthogonalEdgeStyle;rounded=0;orthogonalLoop=1;jettySize=auto;html=1;entryX=0;entryY=0.5;entryDx=0;entryDy=0;" edge="1" parent="1" source="CV2bUwNG1tKQA0WuUEcw-39" target="CV2bUwNG1tKQA0WuUEcw-46">
          <mxGeometry relative="1" as="geometry" />
        </mxCell>
        <mxCell id="CV2bUwNG1tKQA0WuUEcw-39" value="erp_px_cat_g1v2" style="text;html=1;align=center;verticalAlign=middle;whiteSpace=wrap;rounded=1;fillColor=#8A603E;arcSize=50;" vertex="1" parent="1">
          <mxGeometry x="233" y="509" width="135" height="30" as="geometry" />
        </mxCell>
        <mxCell id="CV2bUwNG1tKQA0WuUEcw-64" style="edgeStyle=orthogonalEdgeStyle;rounded=0;orthogonalLoop=1;jettySize=auto;html=1;entryX=0;entryY=0.5;entryDx=0;entryDy=0;" edge="1" parent="1" source="CV2bUwNG1tKQA0WuUEcw-41" target="CV2bUwNG1tKQA0WuUEcw-47">
          <mxGeometry relative="1" as="geometry" />
        </mxCell>
        <mxCell id="CV2bUwNG1tKQA0WuUEcw-41" value="crm_sales_details" style="text;html=1;align=center;verticalAlign=middle;whiteSpace=wrap;rounded=1;fillColor=#757575;arcSize=50;" vertex="1" parent="1">
          <mxGeometry x="432.75" y="280" width="135" height="30" as="geometry" />
        </mxCell>
        <mxCell id="CV2bUwNG1tKQA0WuUEcw-65" style="edgeStyle=orthogonalEdgeStyle;rounded=0;orthogonalLoop=1;jettySize=auto;html=1;entryX=0;entryY=0.5;entryDx=0;entryDy=0;" edge="1" parent="1" source="CV2bUwNG1tKQA0WuUEcw-42" target="CV2bUwNG1tKQA0WuUEcw-48">
          <mxGeometry relative="1" as="geometry" />
        </mxCell>
        <mxCell id="CV2bUwNG1tKQA0WuUEcw-42" value="crm_cust_info" style="text;html=1;align=center;verticalAlign=middle;whiteSpace=wrap;rounded=1;fillColor=#757575;arcSize=50;" vertex="1" parent="1">
          <mxGeometry x="432.75" y="319" width="135" height="30" as="geometry" />
        </mxCell>
        <mxCell id="CV2bUwNG1tKQA0WuUEcw-66" style="edgeStyle=orthogonalEdgeStyle;rounded=0;orthogonalLoop=1;jettySize=auto;html=1;entryX=0;entryY=0.5;entryDx=0;entryDy=0;" edge="1" parent="1" source="CV2bUwNG1tKQA0WuUEcw-43" target="CV2bUwNG1tKQA0WuUEcw-49">
          <mxGeometry relative="1" as="geometry" />
        </mxCell>
        <mxCell id="CV2bUwNG1tKQA0WuUEcw-43" value="crm_prd_info" style="text;html=1;align=center;verticalAlign=middle;whiteSpace=wrap;rounded=1;fillColor=#757575;arcSize=50;" vertex="1" parent="1">
          <mxGeometry x="432.75" y="360" width="135" height="30" as="geometry" />
        </mxCell>
        <mxCell id="CV2bUwNG1tKQA0WuUEcw-44" value="erp_cust_az12" style="text;html=1;align=center;verticalAlign=middle;whiteSpace=wrap;rounded=1;fillColor=#757575;arcSize=50;" vertex="1" parent="1">
          <mxGeometry x="432.25" y="430" width="135" height="30" as="geometry" />
        </mxCell>
        <mxCell id="CV2bUwNG1tKQA0WuUEcw-45" value="erp_loc_a101" style="text;html=1;align=center;verticalAlign=middle;whiteSpace=wrap;rounded=1;fillColor=#757575;arcSize=50;" vertex="1" parent="1">
          <mxGeometry x="432.25" y="470" width="135" height="30" as="geometry" />
        </mxCell>
        <mxCell id="CV2bUwNG1tKQA0WuUEcw-46" value="erp_px_cat_g1v2" style="text;html=1;align=center;verticalAlign=middle;whiteSpace=wrap;rounded=1;fillColor=#757575;arcSize=50;" vertex="1" parent="1">
          <mxGeometry x="432.75" y="509" width="135" height="30" as="geometry" />
        </mxCell>
        <mxCell id="CV2bUwNG1tKQA0WuUEcw-47" value="fact_sales" style="text;html=1;align=center;verticalAlign=middle;whiteSpace=wrap;rounded=1;fillColor=#BFA34D;arcSize=50;" vertex="1" parent="1">
          <mxGeometry x="632.5" y="328" width="135" height="30" as="geometry" />
        </mxCell>
        <mxCell id="CV2bUwNG1tKQA0WuUEcw-48" value="dim_customers" style="text;html=1;align=center;verticalAlign=middle;whiteSpace=wrap;rounded=1;fillColor=#BFA34D;arcSize=50;" vertex="1" parent="1">
          <mxGeometry x="632.5" y="400" width="135" height="30" as="geometry" />
        </mxCell>
        <mxCell id="CV2bUwNG1tKQA0WuUEcw-49" value="dim_product" style="text;html=1;align=center;verticalAlign=middle;whiteSpace=wrap;rounded=1;fillColor=#BFA34D;arcSize=50;" vertex="1" parent="1">
          <mxGeometry x="632.5" y="470" width="135" height="30" as="geometry" />
        </mxCell>
        <mxCell id="CV2bUwNG1tKQA0WuUEcw-50" value="&lt;span style=&quot;background-color: light-dark(#ffffff, var(--ge-dark-color, #121212));&quot;&gt;&lt;font style=&quot;color: light-dark(rgb(138, 96, 62), rgb(153, 125, 95));&quot;&gt;Bronze&lt;/font&gt;&lt;/span&gt;" style="rounded=0;whiteSpace=wrap;html=1;fillColor=none;strokeColor=none;fontStyle=1" vertex="1" parent="1">
          <mxGeometry x="20" y="130" width="160" height="30" as="geometry" />
        </mxCell>
      </root>
    </mxGraphModel>
  </diagram>
</mxfile>
